<svg xmlns="http://www.w3.org/2000/svg" version="1.1" xmlns:xlink="http://www.w3.org/1999/xlink" xmlns:svgjs="http://svgjs.com/svgjs" width="1920" height="1080" preserveAspectRatio="none" viewBox="0 0 1920 1080">
    <g mask="url(&quot;#SvgjsMask1048&quot;)" fill="none">
        <rect width="1920" height="1080" x="0" y="0" fill="rgba(48, 65, 93, 1)"></rect>
        <path d="M1449.643600638367 939.7361879845922L1504.9103692802407 1179.1228630065125 1744.297044302161 1123.8560943646387 1689.0302756602873 884.4694193427183z" fill="rgba(207, 103, 102, 0.25)" class="triangle-float1"></path>
        <path d="M393.3190764617293 73.22227434112273L140.1214316047254-55.78836946557294 11.110787798029719 197.40927539143098 264.30843265503364 326.41991919812665z" fill="rgba(207, 103, 102, 0.25)" class="triangle-float1"></path>
        <path d="M797.3890861308367 486.80921332445314L935.2483975623225 725.588545020247 1174.0277292581163 587.7292335887613 1036.1684178266305 348.94990189296743z" fill="rgba(207, 103, 102, 0.25)" class="triangle-float2"></path>
        <path d="M1018.957,513.195C1070.239,515.226,1112.769,477.339,1137.84,432.557C1162.275,388.911,1168.338,335.42,1142.441,292.626C1117.321,251.117,1067.468,235.28,1018.957,236.11C972.084,236.912,925.243,255.691,902.58,296.729C880.533,336.652,893.743,383.574,915.339,423.743C938.497,466.817,970.09,511.259,1018.957,513.195" fill="rgba(207, 103, 102, 0.25)" class="triangle-float2"></path>
        <path d="M415.3436239712603 47.493645223456326L631.8984155500968 256.61817658182395 841.0229469084645 40.06338500298733 624.4681553296278-169.06114635538026z" fill="rgba(207, 103, 102, 0.25)" class="triangle-float2"></path>
        <path d="M1305.36 622.38 a180.54 180.54 0 1 0 361.08 0 a180.54 180.54 0 1 0 -361.08 0z" fill="rgba(207, 103, 102, 0.25)" class="triangle-float1"></path>
        <path d="M1400.432,679.668C1431.133,679.716,1459.753,665.908,1476.885,640.431C1496.469,611.307,1507.912,574.7,1492.081,543.377C1474.921,509.424,1438.475,489.233,1400.432,489.163C1362.27,489.093,1325.36,508.954,1308.199,543.04C1292.375,574.469,1304.704,611.027,1324.392,640.192C1341.518,665.561,1369.823,679.62,1400.432,679.668" fill="rgba(207, 103, 102, 0.25)" class="triangle-float2"></path>
        <path d="M-72.73 646.04 a323.47 323.47 0 1 0 646.94 0 a323.47 323.47 0 1 0 -646.94 0z" fill="rgba(207, 103, 102, 0.25)" class="triangle-float1"></path>
        <path d="M267.62 856.65 a215.26 215.26 0 1 0 430.52 0 a215.26 215.26 0 1 0 -430.52 0z" fill="rgba(207, 103, 102, 0.25)" class="triangle-float3"></path>
        <path d="M1429.403,1087.694C1491.912,1087.414,1550.293,1052.928,1579.394,997.605C1606.753,945.594,1593.839,883.897,1562.883,833.943C1533.753,786.935,1484.685,757.061,1429.403,755.558C1371.243,753.977,1313.6,777.01,1282.733,826.328C1249.994,878.636,1246.862,945.147,1277.061,998.962C1307.885,1053.89,1366.418,1087.977,1429.403,1087.694" fill="rgba(207, 103, 102, 0.25)" class="triangle-float2"></path>
    </g>
    <defs>
        <mask id="SvgjsMask1048">
            <rect width="1920" height="1080" fill="#ffffff"></rect>
        </mask>
        <style>
            @keyframes float1 {
                0%{transform: translate(0, 0)}
                50%{transform: translate(-10px, 0)}
                100%{transform: translate(0, 0)}
            }

            .triangle-float1 {
                animation: float1 5s infinite;
            }

            @keyframes float2 {
                0%{transform: translate(0, 0)}
                50%{transform: translate(-5px, -5px)}
                100%{transform: translate(0, 0)}
            }

            .triangle-float2 {
                animation: float2 4s infinite;
            }

            @keyframes float3 {
                0%{transform: translate(0, 0)}
                50%{transform: translate(0, -10px)}
                100%{transform: translate(0, 0)}
            }

            .triangle-float3 {
                animation: float3 6s infinite;
            }
        </style>
    </defs>
</svg>